<svg xmlns="http://www.w3.org/2000/svg" id="Layer_1" data-name="Layer 1" viewBox="0 0 96 96"><defs><style>.cls-1{fill:#c6ccda}.cls-2{fill:#8288a1}.cls-3{fill:#969cb2}.cls-4{fill:#b8c0ce}.cls-5{fill:#5c5f7d}.cls-6{fill:#89a3ce}.cls-7{fill:#a5b9db}.cls-8{fill:#c3d2e7}.cls-9{fill:#90d1d7}.cls-10{fill:#abd9e6}.cls-11{fill:#cf4055}.cls-12{fill:#f6b756}.cls-13{fill:#85bd79}.cls-14{fill:#c3e1f5}.cls-15{fill:#ccd1dc}.cls-16{fill:#dee1e7}.cls-17{fill:#39426a}</style></defs><title>error, 404, monitor, screen, computer, website, webpage, browser, development</title><path d="M33,90H63a5,5,0,0,1,5,5v0a0,0,0,0,1,0,0H28a0,0,0,0,1,0,0v0A5,5,0,0,1,33,90Z" class="cls-1"/><polygon points="60 90 36 90 37.44 84.72 39 77 57 77 57.69 80 59.31 87 60 90" class="cls-2"/><path d="M59.31,87H47a5.7,5.7,0,0,1-5.6-6.83l0-.17h16.3Z" class="cls-3"/><rect width="94" height="76" x="1" y="1" class="cls-4" rx="6"/><path d="M7,1H89a6,6,0,0,1,6,6V65a0,0,0,0,1,0,0H1a0,0,0,0,1,0,0V7A6,6,0,0,1,7,1Z" class="cls-5"/><rect width="84" height="54" x="6" y="6" class="cls-6" rx="2"/><path d="M90,8V54.05a2,2,0,0,1-2,2H26A16,16,0,0,1,10,40V6H88A2,2,0,0,1,90,8Z" class="cls-7"/><path d="M13,21H87a0,0,0,0,1,0,0V53a0,0,0,0,1,0,0H45A32,32,0,0,1,13,21v0a0,0,0,0,1,0,0Z" class="cls-8"/><path d="M90,8V18H6V8A2,2,0,0,1,8,6H88A2,2,0,0,1,90,8Z" class="cls-9"/><path d="M90,8v7H18A9,9,0,0,1,9,6H88A2,2,0,0,1,90,8Z" class="cls-10"/><circle cx="14" cy="12" r="2" class="cls-11"/><circle cx="24" cy="12" r="2" class="cls-12"/><circle cx="34" cy="12" r="2" class="cls-13"/><rect width="37" height="4" x="50" y="9" class="cls-14" rx="2"/><circle cx="45" cy="11" r="2" class="cls-14"/><path d="M3,65H92a0,0,0,0,1,0,0v5a4,4,0,0,1-4,4H7a4,4,0,0,1-4-4V65a0,0,0,0,1,0,0Z" class="cls-15"/><rect width="76" height="4" x="14" y="68" class="cls-16" rx="2"/><path d="M88,5H8A3,3,0,0,0,5,8V58a3,3,0,0,0,3,3H88a3,3,0,0,0,3-3V8A3,3,0,0,0,88,5Zm1,53a1,1,0,0,1-1,1H8a1,1,0,0,1-1-1V8A1,1,0,0,1,8,7H88a1,1,0,0,1,1,1Z" class="cls-17"/><path d="M48,68a3,3,0,1,0,3,3A3,3,0,0,0,48,68Zm0,4a1,1,0,1,1,1-1A1,1,0,0,1,48,72Z" class="cls-17"/><circle cx="8" cy="70" r="2" class="cls-16"/><path d="M89,0H7A7,7,0,0,0,0,7V71a7,7,0,0,0,7,7H37.78l-1.31,6.46L35.24,89H33a6,6,0,0,0-6,6,1,1,0,0,0,1,1H68a1,1,0,0,0,1-1,6,6,0,0,0-6-6H60.8L58.26,78H89a7,7,0,0,0,7-7V7A7,7,0,0,0,89,0ZM66.87,94H29.13A4,4,0,0,1,33,91H63A4,4,0,0,1,66.87,94Zm-8.13-5H37.31l1.11-4.08L39.82,78H56.2ZM89,76H7a5,5,0,0,1-5-5V66H94v5A5,5,0,0,1,89,76Zm5-12H2V7A5,5,0,0,1,7,2H89a5,5,0,0,1,5,5Z" class="cls-17"/><path d="M88,5H8A3,3,0,0,0,5,8V58a3,3,0,0,0,3,3H88a3,3,0,0,0,3-3V8A3,3,0,0,0,88,5ZM7,8A1,1,0,0,1,8,7H88a1,1,0,0,1,1,1v9H7ZM88,59H8a1,1,0,0,1-1-1V19H89V58A1,1,0,0,1,88,59Z" class="cls-17"/><path d="M48,68a3,3,0,1,0,3,3A3,3,0,0,0,48,68Zm0,4a1,1,0,1,1,1-1A1,1,0,0,1,48,72Z" class="cls-17"/><path d="M14,9a3,3,0,1,0,3,3A3,3,0,0,0,14,9Zm0,4a1,1,0,1,1,1-1A1,1,0,0,1,14,13Z" class="cls-17"/><path d="M24,9a3,3,0,1,0,3,3A3,3,0,0,0,24,9Zm0,4a1,1,0,1,1,1-1A1,1,0,0,1,24,13Z" class="cls-17"/><path d="M34,9a3,3,0,1,0,3,3A3,3,0,0,0,34,9Zm0,4a1,1,0,1,1,1-1A1,1,0,0,1,34,13Z" class="cls-17"/><path d="M24,25a1,1,0,0,0,0-2H16a1,1,0,0,0-1,1V36a1,1,0,0,0,1,1h8a1,1,0,0,0,0-2H17V31h5a1,1,0,0,0,0-2H17V25Z" class="cls-11"/><path d="M31,31h4a2,2,0,0,1,2,2v3a1,1,0,0,0,2,0V33a4,4,0,0,0-1.38-3A4,4,0,0,0,35,23H30a1,1,0,0,0-1,1V36a1,1,0,0,0,2,0Zm0-6h4a2,2,0,0,1,0,4H31Z" class="cls-11"/><path d="M45,31h4a2,2,0,0,1,2,2v3a1,1,0,0,0,2,0V33a4,4,0,0,0-1.38-3A4,4,0,0,0,49,23H44a1,1,0,0,0-1,1V36a1,1,0,0,0,2,0Zm0-6h4a2,2,0,0,1,0,4H45Z" class="cls-11"/><path d="M81,27a4,4,0,0,0-4-4H72a1,1,0,0,0-1,1V36a1,1,0,0,0,2,0V31h4a2,2,0,0,1,2,2v3a1,1,0,0,0,2,0V33a4,4,0,0,0-1.38-3A4,4,0,0,0,81,27Zm-8,2V25h4a2,2,0,0,1,0,4Z" class="cls-11"/><path d="M67,32V28a5,5,0,0,0-10,0v4a5,5,0,0,0,10,0Zm-8,0V28a3,3,0,0,1,6,0v4a3,3,0,0,1-6,0Z" class="cls-11"/><path d="M40,41a1,1,0,0,0-1,1v5H35a2,2,0,0,1-2-2V42a1,1,0,0,0-2,0v3a4,4,0,0,0,4,4h4v5a1,1,0,0,0,2,0V42A1,1,0,0,0,40,41Z" class="cls-11"/><path d="M68,41a1,1,0,0,0-1,1v5H63a2,2,0,0,1-2-2V42a1,1,0,0,0-2,0v3a4,4,0,0,0,4,4h4v5a1,1,0,0,0,2,0V42A1,1,0,0,0,68,41Z" class="cls-11"/><path d="M53.78,42.76A5,5,0,0,0,45,46v4a5,5,0,0,0,1.1,3.09,1.58,1.58,0,0,0,.12.15A5,5,0,0,0,55,50V46a5,5,0,0,0-1.1-3.09A1.58,1.58,0,0,0,53.78,42.76ZM47,46a3,3,0,0,1,3-3,3,3,0,0,1,1.75.57l-4.69,7A3.08,3.08,0,0,1,47,50Zm6,4a3,3,0,0,1-3,3,3,3,0,0,1-1.75-.57l4.69-7A3.08,3.08,0,0,1,53,46Z" class="cls-11"/></svg>